<svg width="30" height="32" viewBox="0 0 30 35" fill="none" xmlns="http://www.w3.org/2000/svg" >
<path d="M12.6276 8.25037C11.7085 8.25037 10.81 8.52292 10.0458 9.03355C9.28158 9.54418 8.68594 10.27 8.33421 11.1191C7.98248 11.9683 7.89045 12.9027 8.06976 13.8041C8.24908 14.7056 8.69167 15.5336 9.34159 16.1835C9.9915 16.8334 10.8195 17.276 11.721 17.4554C12.6225 17.6347 13.5568 17.5426 14.406 17.1909C15.2551 16.8392 15.9809 16.2435 16.4916 15.4793C17.0022 14.7151 17.2748 13.8166 17.2748 12.8975C17.2733 11.6654 16.7833 10.4842 15.9121 9.61303C15.0409 8.74183 13.8597 8.25177 12.6276 8.25037V8.25037ZM12.6276 15.2211C12.1681 15.2211 11.7188 15.0848 11.3367 14.8295C10.9546 14.5742 10.6568 14.2113 10.4809 13.7867C10.305 13.3621 10.259 12.8949 10.3487 12.4442C10.4383 11.9935 10.6596 11.5795 10.9846 11.2545C11.3096 10.9295 11.7236 10.7082 12.1743 10.6186C12.625 10.5289 13.0922 10.5749 13.5168 10.7508C13.9414 10.9267 14.3043 11.2245 14.5596 11.6066C14.8149 11.9887 14.9512 12.4379 14.9512 12.8975C14.9505 13.5135 14.7054 14.1041 14.2698 14.5397C13.8342 14.9753 13.2436 15.2204 12.6276 15.2211V15.2211Z" fill="#E30613"/>
<path d="M21.5575 3.96066C19.3496 1.7533 16.4023 0.44204 13.2844 0.279952C10.1666 0.117864 7.09917 1.11644 4.67426 3.08295C2.24936 5.04947 0.638837 7.84451 0.153537 10.9286C-0.331763 14.0128 0.34256 17.1673 2.04636 19.7835L10.8256 33.2612C11.021 33.5611 11.2881 33.8075 11.6028 33.978C11.9175 34.1486 12.2697 34.2379 12.6276 34.2379C12.9856 34.2379 13.3378 34.1486 13.6525 33.978C13.9672 33.8075 14.2343 33.5611 14.4297 33.2612L23.2092 19.7835C24.7902 17.3566 25.4888 14.4601 25.1881 11.5793C24.8874 8.69857 23.6056 6.00873 21.5575 3.96066V3.96066ZM21.2624 18.5152L12.6277 31.7705L3.99293 18.5152C1.34987 14.4578 1.91675 9.02786 5.34082 5.60364C6.29774 4.6467 7.43377 3.88761 8.68405 3.36972C9.93433 2.85183 11.2744 2.58527 12.6277 2.58527C13.981 2.58527 15.321 2.85183 16.5713 3.36972C17.8216 3.88761 18.9576 4.6467 19.9145 5.60364C23.3386 9.02786 23.9054 14.4578 21.2624 18.5152Z" fill="#E30613"/>
</svg>
